<?xml version="1.0" encoding="UTF-8" standalone="no"?>
<!DOCTYPE svg PUBLIC "-//W3C//DTD SVG 1.1//EN"
 "http://www.w3.org/Graphics/SVG/1.1/DTD/svg11.dtd">
<!-- Generated by graphviz version 2.43.0 (0)
 -->
<!-- Title: EcoHomeFullER Pages: 1 -->
<svg width="1304pt" height="357pt"
 viewBox="0.00 0.00 1304.00 356.50" xmlns="http://www.w3.org/2000/svg" xmlns:xlink="http://www.w3.org/1999/xlink">
<g id="graph0" class="graph" transform="scale(1 1) rotate(0) translate(4 352.5)">
<title>EcoHomeFullER</title>
<polygon fill="white" stroke="transparent" points="-4,4 -4,-352.5 1300,-352.5 1300,4 -4,4"/>
<!-- User -->
<g id="node1" class="node">
<title>User</title>
<path fill="#e8f2ff" stroke="black" d="M67.5,-152.5C67.5,-152.5 179.5,-152.5 179.5,-152.5 185.5,-152.5 191.5,-158.5 191.5,-164.5 191.5,-164.5 191.5,-238.5 191.5,-238.5 191.5,-244.5 185.5,-250.5 179.5,-250.5 179.5,-250.5 67.5,-250.5 67.5,-250.5 61.5,-250.5 55.5,-244.5 55.5,-238.5 55.5,-238.5 55.5,-164.5 55.5,-164.5 55.5,-158.5 61.5,-152.5 67.5,-152.5"/>
<text text-anchor="middle" x="81" y="-197.8" font-family="Times,serif" font-size="14.00">User</text>
<polyline fill="none" stroke="black" points="106.5,-152.5 106.5,-250.5 "/>
<text text-anchor="start" x="114.5" y="-235.3" font-family="Times,serif" font-size="14.00">id PK</text>
<text text-anchor="start" x="114.5" y="-220.3" font-family="Times,serif" font-size="14.00">email</text>
<text text-anchor="start" x="114.5" y="-205.3" font-family="Times,serif" font-size="14.00">password</text>
<text text-anchor="start" x="114.5" y="-190.3" font-family="Times,serif" font-size="14.00">role</text>
<text text-anchor="start" x="114.5" y="-175.3" font-family="Times,serif" font-size="14.00">name</text>
<text text-anchor="start" x="114.5" y="-160.3" font-family="Times,serif" font-size="14.00">surname</text>
</g>
<!-- Account -->
<g id="node2" class="node">
<title>Account</title>
<path fill="#fff3e0" stroke="black" d="M379,-272.5C379,-272.5 675,-272.5 675,-272.5 681,-272.5 687,-278.5 687,-284.5 687,-284.5 687,-328.5 687,-328.5 687,-334.5 681,-340.5 675,-340.5 675,-340.5 379,-340.5 379,-340.5 373,-340.5 367,-334.5 367,-328.5 367,-328.5 367,-284.5 367,-284.5 367,-278.5 373,-272.5 379,-272.5"/>
<text text-anchor="middle" x="404" y="-302.8" font-family="Times,serif" font-size="14.00">Account</text>
<polyline fill="none" stroke="black" points="441,-272.5 441,-340.5 "/>
<text text-anchor="start" x="449" y="-325.3" font-family="Times,serif" font-size="14.00">provider+providerAccountId PK</text>
<text text-anchor="start" x="449" y="-310.3" font-family="Times,serif" font-size="14.00">userId FK</text>
<text text-anchor="start" x="449" y="-295.3" font-family="Times,serif" font-size="14.00">type</text>
<text text-anchor="start" x="449" y="-280.3" font-family="Times,serif" font-size="14.00">access_token</text>
</g>
<!-- User&#45;&gt;Account -->
<g id="edge1" class="edge">
<title>User&#45;&gt;Account</title>
<path fill="none" stroke="black" d="M191.52,-239.75C275.97,-239.75 409,-239.75 409,-239.75 409,-239.75 409,-262.34 409,-262.34"/>
<polygon fill="black" stroke="black" points="405.5,-262.34 409,-272.34 412.5,-262.34 405.5,-262.34"/>
<text text-anchor="middle" x="307" y="-310.3" font-family="Times,serif" font-size="14.00">1 .. *</text>
</g>
<!-- Property -->
<g id="node4" class="node">
<title>Property</title>
<path fill="#e0f7fa" stroke="black" d="M462.5,-175C462.5,-175 591.5,-175 591.5,-175 597.5,-175 603.5,-181 603.5,-187 603.5,-187 603.5,-216 603.5,-216 603.5,-222 597.5,-228 591.5,-228 591.5,-228 462.5,-228 462.5,-228 456.5,-228 450.5,-222 450.5,-216 450.5,-216 450.5,-187 450.5,-187 450.5,-181 456.5,-175 462.5,-175"/>
<text text-anchor="middle" x="490.5" y="-197.8" font-family="Times,serif" font-size="14.00">Property</text>
<polyline fill="none" stroke="black" points="530.5,-175 530.5,-228 "/>
<text text-anchor="start" x="538.5" y="-212.8" font-family="Times,serif" font-size="14.00">id PK</text>
<text text-anchor="start" x="538.5" y="-197.8" font-family="Times,serif" font-size="14.00">name</text>
<text text-anchor="start" x="538.5" y="-182.8" font-family="Times,serif" font-size="14.00">address</text>
</g>
<!-- User&#45;&gt;Property -->
<g id="edge7" class="edge">
<title>User&#45;&gt;Property</title>
<path fill="none" stroke="black" stroke-dasharray="5,2" d="M191.95,-201.5C191.95,-201.5 440.29,-201.5 440.29,-201.5"/>
<polygon fill="black" stroke="black" points="440.29,-205 450.29,-201.5 440.29,-198 440.29,-205"/>
<text text-anchor="middle" x="307" y="-205.3" font-family="Times,serif" font-size="14.00">admin N..M</text>
</g>
<!-- Rental -->
<g id="node5" class="node">
<title>Rental</title>
<path fill="#e0f7fa" stroke="black" d="M795,-75C795,-75 952,-75 952,-75 958,-75 964,-81 964,-87 964,-87 964,-146 964,-146 964,-152 958,-158 952,-158 952,-158 795,-158 795,-158 789,-158 783,-152 783,-146 783,-146 783,-87 783,-87 783,-81 789,-75 795,-75"/>
<text text-anchor="middle" x="814.5" y="-112.8" font-family="Times,serif" font-size="14.00">Rental</text>
<polyline fill="none" stroke="black" points="846,-75 846,-158 "/>
<text text-anchor="start" x="854" y="-142.8" font-family="Times,serif" font-size="14.00">id PK</text>
<text text-anchor="start" x="854" y="-127.8" font-family="Times,serif" font-size="14.00">userId FK</text>
<text text-anchor="start" x="854" y="-112.8" font-family="Times,serif" font-size="14.00">propertyId FK</text>
<text text-anchor="start" x="854" y="-97.8" font-family="Times,serif" font-size="14.00">startDate</text>
<text text-anchor="start" x="854" y="-82.8" font-family="Times,serif" font-size="14.00">endDate</text>
</g>
<!-- User&#45;&gt;Rental -->
<g id="edge2" class="edge">
<title>User&#45;&gt;Rental</title>
<path fill="none" stroke="black" d="M191.61,-166.5C371.21,-166.5 844,-166.5 844,-166.5 844,-166.5 844,-165.67 844,-165.67"/>
<polygon fill="black" stroke="black" points="847.5,-168.24 844,-158.24 840.5,-168.24 847.5,-168.24"/>
<text text-anchor="middle" x="527" y="-120.3" font-family="Times,serif" font-size="14.00">1 .. *</text>
</g>
<!-- VerificationToken -->
<g id="node3" class="node">
<title>VerificationToken</title>
<path fill="#fff3e0" stroke="black" d="M12,-295C12,-295 235,-295 235,-295 241,-295 247,-301 247,-307 247,-307 247,-336 247,-336 247,-342 241,-348 235,-348 235,-348 12,-348 12,-348 6,-348 0,-342 0,-336 0,-336 0,-307 0,-307 0,-301 6,-295 12,-295"/>
<text text-anchor="middle" x="70" y="-317.8" font-family="Times,serif" font-size="14.00">VerificationToken</text>
<polyline fill="none" stroke="black" points="140,-295 140,-348 "/>
<text text-anchor="start" x="148" y="-332.8" font-family="Times,serif" font-size="14.00">identifier PK</text>
<text text-anchor="start" x="148" y="-317.8" font-family="Times,serif" font-size="14.00">token</text>
<text text-anchor="start" x="148" y="-302.8" font-family="Times,serif" font-size="14.00">expires</text>
</g>
<!-- Property&#45;&gt;Rental -->
<g id="edge3" class="edge">
<title>Property&#45;&gt;Rental</title>
<path fill="none" stroke="black" d="M603.75,-188.25C713.98,-188.25 904,-188.25 904,-188.25 904,-188.25 904,-168.24 904,-168.24"/>
<polygon fill="black" stroke="black" points="907.5,-168.24 904,-158.24 900.5,-168.24 907.5,-168.24"/>
<text text-anchor="middle" x="722" y="-191.3" font-family="Times,serif" font-size="14.00">1 .. *</text>
</g>
<!-- ElectricityBill -->
<g id="node7" class="node">
<title>ElectricityBill</title>
<path fill="#e0f7fa" stroke="black" d="M769,-202.5C769,-202.5 978,-202.5 978,-202.5 984,-202.5 990,-208.5 990,-214.5 990,-214.5 990,-288.5 990,-288.5 990,-294.5 984,-300.5 978,-300.5 978,-300.5 769,-300.5 769,-300.5 763,-300.5 757,-294.5 757,-288.5 757,-288.5 757,-214.5 757,-214.5 757,-208.5 763,-202.5 769,-202.5"/>
<text text-anchor="middle" x="814.5" y="-247.8" font-family="Times,serif" font-size="14.00">ElectricityBill</text>
<polyline fill="none" stroke="black" points="872,-202.5 872,-300.5 "/>
<text text-anchor="start" x="880" y="-285.3" font-family="Times,serif" font-size="14.00">id PK</text>
<text text-anchor="start" x="880" y="-270.3" font-family="Times,serif" font-size="14.00">propertyId FK</text>
<text text-anchor="start" x="880" y="-255.3" font-family="Times,serif" font-size="14.00">periodStart</text>
<text text-anchor="start" x="880" y="-240.3" font-family="Times,serif" font-size="14.00">periodEnd</text>
<text text-anchor="start" x="880" y="-225.3" font-family="Times,serif" font-size="14.00">totalKWh</text>
<text text-anchor="start" x="880" y="-210.3" font-family="Times,serif" font-size="14.00">totalCost</text>
</g>
<!-- Property&#45;&gt;ElectricityBill -->
<g id="edge6" class="edge">
<title>Property&#45;&gt;ElectricityBill</title>
<path fill="none" stroke="black" d="M603.9,-215.25C603.9,-215.25 746.96,-215.25 746.96,-215.25"/>
<polygon fill="black" stroke="black" points="746.96,-218.75 756.96,-215.25 746.96,-211.75 746.96,-218.75"/>
<text text-anchor="middle" x="722" y="-255.3" font-family="Times,serif" font-size="14.00">1 .. *</text>
</g>
<!-- Consumption -->
<g id="node6" class="node">
<title>Consumption</title>
<path fill="#e0f7fa" stroke="black" d="M1072,-143C1072,-143 1284,-143 1284,-143 1290,-143 1296,-149 1296,-155 1296,-155 1296,-214 1296,-214 1296,-220 1290,-226 1284,-226 1284,-226 1072,-226 1072,-226 1066,-226 1060,-220 1060,-214 1060,-214 1060,-155 1060,-155 1060,-149 1066,-143 1072,-143"/>
<text text-anchor="middle" x="1115.5" y="-180.8" font-family="Times,serif" font-size="14.00">Consumption</text>
<polyline fill="none" stroke="black" points="1171,-143 1171,-226 "/>
<text text-anchor="start" x="1179" y="-210.8" font-family="Times,serif" font-size="14.00">id PK</text>
<text text-anchor="start" x="1179" y="-195.8" font-family="Times,serif" font-size="14.00">rentalId FK</text>
<text text-anchor="start" x="1179" y="-180.8" font-family="Times,serif" font-size="14.00">month</text>
<text text-anchor="start" x="1179" y="-165.8" font-family="Times,serif" font-size="14.00">year</text>
<text text-anchor="start" x="1179" y="-150.8" font-family="Times,serif" font-size="14.00">energyReading</text>
</g>
<!-- Rental&#45;&gt;Consumption -->
<g id="edge4" class="edge">
<title>Rental&#45;&gt;Consumption</title>
<path fill="none" stroke="black" d="M964.04,-150.5C964.04,-150.5 1049.86,-150.5 1049.86,-150.5"/>
<polygon fill="black" stroke="black" points="1049.86,-154 1059.86,-150.5 1049.86,-147 1049.86,-154"/>
<text text-anchor="middle" x="1025" y="-188.3" font-family="Times,serif" font-size="14.00">1 .. *</text>
</g>
<!-- Invoice -->
<g id="node8" class="node">
<title>Invoice</title>
<path fill="#e0f7fa" stroke="black" d="M1107,-0.5C1107,-0.5 1249,-0.5 1249,-0.5 1255,-0.5 1261,-6.5 1261,-12.5 1261,-12.5 1261,-86.5 1261,-86.5 1261,-92.5 1255,-98.5 1249,-98.5 1249,-98.5 1107,-98.5 1107,-98.5 1101,-98.5 1095,-92.5 1095,-86.5 1095,-86.5 1095,-12.5 1095,-12.5 1095,-6.5 1101,-0.5 1107,-0.5"/>
<text text-anchor="middle" x="1129" y="-45.8" font-family="Times,serif" font-size="14.00">Invoice</text>
<polyline fill="none" stroke="black" points="1163,-0.5 1163,-98.5 "/>
<text text-anchor="start" x="1171" y="-83.3" font-family="Times,serif" font-size="14.00">id PK</text>
<text text-anchor="start" x="1171" y="-68.3" font-family="Times,serif" font-size="14.00">rentalId FK</text>
<text text-anchor="start" x="1171" y="-53.3" font-family="Times,serif" font-size="14.00">month</text>
<text text-anchor="start" x="1171" y="-38.3" font-family="Times,serif" font-size="14.00">year</text>
<text text-anchor="start" x="1171" y="-23.3" font-family="Times,serif" font-size="14.00">totalCost</text>
<text text-anchor="start" x="1171" y="-8.3" font-family="Times,serif" font-size="14.00">status</text>
</g>
<!-- Rental&#45;&gt;Invoice -->
<g id="edge5" class="edge">
<title>Rental&#45;&gt;Invoice</title>
<path fill="none" stroke="black" d="M964.04,-86.75C964.04,-86.75 1084.83,-86.75 1084.83,-86.75"/>
<polygon fill="black" stroke="black" points="1084.83,-90.25 1094.83,-86.75 1084.83,-83.25 1084.83,-90.25"/>
<text text-anchor="middle" x="1025" y="-53.3" font-family="Times,serif" font-size="14.00">1 .. *</text>
</g>
</g>
</svg>
